<?xml version="1.0" encoding="UTF-8"?>
<svg version="1.1" xmlns="http://www.w3.org/2000/svg" width="60" height="60">
<path d="M0 0 C3.6341509 1.8661856 5.00233109 4.5257932 7 8 C7.556875 8.556875 8.11375 9.11375 8.6875 9.6875 C9.120625 10.120625 9.55375 10.55375 10 11 C10 11.66 10 12.32 10 13 C10.99 13 11.98 13 13 13 C14.80362003 16.83269257 15.44078194 19.76849335 15 24 C14.03567924 25.68756133 13.03789581 27.35666496 12 29 C12 30.32 12 31.64 12 33 C13.65 33.66 15.3 34.32 17 35 C16.7808749 40.36856506 15.6354687 43.42278146 11.93359375 47.35546875 C6.96842917 51.5783663 0.74636524 54.98049699 -5.9296875 54.48046875 C-12.78826013 52.88876227 -18.61735248 49.39976654 -22.94921875 43.84765625 C-24.63049783 40.89135511 -24.86219341 38.37626151 -25 35 C-23.35 34.34 -21.7 33.68 -20 33 C-20.42214924 30.46710459 -20.79254686 28.36897569 -22.05859375 26.1171875 C-23.19040128 23.57179463 -23.06743207 22.11234188 -22.6875 19.375 C-22.58824219 18.59898438 -22.48898438 17.82296875 -22.38671875 17.0234375 C-22 15 -22 15 -21 13 C-20.01 13 -19.02 13 -18 13 C-17.731875 12.401875 -17.46375 11.80375 -17.1875 11.1875 C-15.99427577 8.98945536 -14.75321129 7.75321129 -13 6 C-12.484375 5.13375 -11.96875 4.2675 -11.4375 3.375 C-8.7713566 -1.02993257 -4.72423634 -0.5165666 0 0 Z " fill="#A16D00" transform="translate(34,3)"/>
<path d="M0 0 C3.6341509 1.8661856 5.00233109 4.5257932 7 8 C7.556875 8.556875 8.11375 9.11375 8.6875 9.6875 C9.120625 10.120625 9.55375 10.55375 10 11 C10 11.66 10 12.32 10 13 C10.99 13 11.98 13 13 13 C14.80306232 16.83150744 15.35989587 19.77122353 15 24 C14 26.375 14 26.375 13 28 C11.68 28 10.36 28 9 28 C8.814375 28.7425 8.62875 29.485 8.4375 30.25 C6.48001894 33.99474637 3.85560031 35.57592759 0 37 C-6.06788371 37.86684053 -9.30965754 36.73321127 -14.43359375 33.484375 C-16.34221617 31.67570537 -16.80252911 30.61269176 -17 28 C-16.01 26.515 -16.01 26.515 -15 25 C-12.50638429 26.20381448 -10.31856917 27.45428722 -8 29 C-2.4738216 29.55829599 -2.4738216 29.55829599 2.5 27.5625 C4.66259019 23.8680751 4.85563131 20.18565586 4 16 C1.82996094 13.0978201 0.85105903 12.9639659 -2.875 12.0625 C-6.022392 11.79107353 -6.90722585 11.95052045 -9.8125 13.5 C-12.40718498 16.46535426 -13.60028462 19.33407876 -15 23 C-15.66 23.99 -16.32 24.98 -17 26 C-17.02715383 24.25008666 -17.04646551 22.50005055 -17.0625 20.75 C-17.07410156 19.77546875 -17.08570312 18.8009375 -17.09765625 17.796875 C-16.94158108 13.32688216 -15.77879053 10.2779295 -13.625 6.375 C-13.20476563 5.59898438 -12.78453125 4.82296875 -12.3515625 4.0234375 C-9.24635615 -0.62539744 -5.12254451 -0.66364949 0 0 Z " fill="#ECA200" transform="translate(34,3)"/>
<path d="M0 0 C1.46021611 0.88003008 2.90215377 1.79208167 4.3125 2.75 C5.67375 3.5853125 5.67375 3.5853125 7.0625 4.4375 C14.185239 11.75809286 16.62796377 19.53339098 16.70410156 29.48168945 C16.58622901 35.86046325 14.91138135 40.45135544 11.3125 45.75 C10.755625 46.6575 10.19875 47.565 9.625 48.5 C2.30440714 55.622739 -5.47089098 58.06546377 -15.41918945 58.14160156 C-21.79796325 58.02372901 -26.38885544 56.34888135 -31.6875 52.75 C-32.595 52.193125 -33.5025 51.63625 -34.4375 51.0625 C-41.560239 43.74190714 -44.00296377 35.96660902 -44.07910156 26.01831055 C-43.96122901 19.63953675 -42.28638135 15.04864456 -38.6875 9.75 C-38.130625 8.8425 -37.57375 7.935 -37 7 C-27.41092884 -2.32990707 -12.34699777 -6.08024362 0 0 Z M-35.375 9.625 C-40.51038663 16.56471166 -42.55418928 23.11406038 -41.6875 31.75 C-39.70301492 40.35916322 -35.85191698 46.44833144 -28.6875 51.75 C-21.96027392 55.59412919 -15.01970202 56.97911775 -7.3828125 55.21875 C1.50753501 52.46483764 7.39696298 47.85218978 12.0625 39.6875 C15.33813557 31.9897564 15.0835191 24.59585171 12.22265625 16.8515625 C8.82848905 9.01438673 3.10016209 4.06389876 -4.6875 0.75 C-16.1013059 -2.55399644 -27.37060892 1.06216303 -35.375 9.625 Z " fill="#FFAD00" transform="translate(43.6875,2.25)"/>
<path d="M0 0 C0.99 0.33 1.98 0.66 3 1 C3.71905947 2.73227963 4.43469354 4.46631353 5.11328125 6.21484375 C6.78183748 9.57400762 9.73231859 11.3661593 13 13 C19.49938455 13.82253622 24.61833894 12.77082374 30 9 C32.63120799 6.23030738 34.45144277 3.48425378 36 0 C37.32 0.33 38.64 0.66 40 1 C39.7808749 6.36856506 38.6354687 9.42278146 34.93359375 13.35546875 C29.96842917 17.5783663 23.74636524 20.98049699 17.0703125 20.48046875 C10.21173987 18.88876227 4.38264752 15.39976654 0.05078125 9.84765625 C-1.63049783 6.89135511 -1.86219341 4.37626151 -2 1 C-1.34 0.67 -0.68 0.34 0 0 Z " fill="#040302" transform="translate(11,37)"/>
<path d="M0 0 C0.598125 0.33 1.19625 0.66 1.8125 1 C4.05386471 2.20787988 4.05386471 2.20787988 7 2 C7.33 2.99 7.66 3.98 8 5 C10.27076842 5.02699725 12.54162821 5.04639453 14.8125 5.0625 C16.70935547 5.07990234 16.70935547 5.07990234 18.64453125 5.09765625 C21.99605237 5.16159116 21.99605237 5.16159116 25 4 C25.33 3.01 25.66 2.02 26 1 C28.33333333 1 30.66666667 1 33 1 C30.64666397 7.66778541 27.93614971 10.76596909 21.6875 14.3125 C16.26170706 15.70049354 11.7349079 15.88382101 6.6875 13.3125 C2.48115584 9.69308759 -0.52353686 6.71755771 -1 1 C-0.67 0.67 -0.34 0.34 0 0 Z " fill="#F1A709" transform="translate(14,36)"/>
<path d="M0 0 C3.28327904 1.21338573 4.82596924 2.22538048 6.875 5.0625 C7.375 7.5 7.375 7.5 6.875 10.0625 C5.32555268 12.26171555 3.7732874 14.1642126 1.875 16.0625 C-3.50162338 16.53003247 -3.50162338 16.53003247 -5.875 14.75 C-9.03676471 10.48161765 -9.03676471 10.48161765 -9.625 7.6875 C-9.125 5.0625 -9.125 5.0625 -6.5 2.1875 C-3.125 0.0625 -3.125 0.0625 0 0 Z " fill="#967A35" transform="translate(31.125,15.9375)"/>
<path d="M0 0 C3.04977392 1.52488696 3.80941891 2.59025066 5.25 5.6875 C5.4975 6.450625 5.745 7.21375 6 8 C-0.95640791 10.81568891 -7.66561007 9.75276679 -15 9 C-14.21448343 7.68381002 -13.4213763 6.37214772 -12.625 5.0625 C-12.18414063 4.33160156 -11.74328125 3.60070312 -11.2890625 2.84765625 C-8.57328533 -1.0449577 -4.33194587 -0.47273219 0 0 Z " fill="#B08423" transform="translate(34,3)"/>
<path d="M0 0 C0.99 0 1.98 0 3 0 C3.185625 0.5775 3.37125 1.155 3.5625 1.75 C5.66323565 5.03810798 8.43858186 6.63129813 12 8 C16.41492476 8.86567152 19.89476993 8.33095016 23.875 6.25 C26.71606947 4.20442998 27.95172918 3.261287 29 0 C29.99 0.33 30.98 0.66 32 1 C31.01 3.31 30.02 5.62 29 8 C28.01 7.67 27.02 7.34 26 7 C26 7.99 26 8.98 26 10 C22.29275943 11.16433435 18.74235879 11.16731546 14.875 11.1875 C13.63492187 11.20167969 12.39484375 11.21585938 11.1171875 11.23046875 C8 11 8 11 6 9 C5.67 8.34 5.34 7.68 5 7 C4.01 7.495 4.01 7.495 3 8 C0 2.25 0 2.25 0 0 Z " fill="#0C0800" transform="translate(14,31)"/>
<path d="M0 0 C2.99036192 1.02435802 4.19489332 1.89383261 5.8359375 4.62890625 C6.77270704 9.40197007 6.51549405 12.58833529 3.8359375 16.69140625 C-0.02535176 19.18515556 -2.69511138 19.55693441 -7.1640625 18.62890625 C-10.1640625 17.25390625 -10.1640625 17.25390625 -12.1640625 14.62890625 C-13.07409831 10.50943119 -13.31102612 6.54746359 -11.08984375 2.83203125 C-7.63041234 -0.54209911 -4.47396539 -0.95136046 0 0 Z M-8.4140625 3.81640625 C-11.30532313 6.29998052 -11.30532313 6.29998052 -11.7890625 9.12890625 C-10.87974052 12.76619415 -8.7753901 15.01757865 -6.1640625 17.62890625 C-2.01522682 18.07091703 -2.01522682 18.07091703 1.5859375 16.31640625 C4.02360482 13.05583013 4.02360482 13.05583013 5.3359375 9.25390625 C5.02463208 6.3033361 5.02463208 6.3033361 2.0859375 3.81640625 C-2.32351889 0.84850291 -4.00460611 0.84850291 -8.4140625 3.81640625 Z " fill="#0B0802" transform="translate(33.1640625,14.37109375)"/>
<path d="M0 0 C2 1.375 2 1.375 4 3 C4 3.66 4 4.32 4 5 C4.99 5 5.98 5 7 5 C8.79885972 8.82257691 9.36703674 11.7790775 9 16 C8.34 16.99 7.68 17.98 7 19 C6.34 19 5.68 19 5 19 C4.01 15.7 3.02 12.4 2 9 C1.67 9 1.34 9 1 9 C0.67 6.03 0.34 3.06 0 0 Z " fill="#C09E50" transform="translate(40,11)"/>
<path d="M0 0 C-0.33 1.32 -0.66 2.64 -1 4 C0.32 3.34 1.64 2.68 3 2 C3 2.66 3 3.32 3 4 C3.66 4 4.32 4 5 4 C4.67 5.32 4.34 6.64 4 8 C2.68 8 1.36 8 0 8 C0.33 8.99 0.66 9.98 1 11 C-0.32 11.33 -1.64 11.66 -3 12 C-4.97538528 9.77769156 -5.93956032 8.41300448 -6.375 5.4375 C-6 3 -6 3 -4.6875 1.1875 C-3 0 -3 0 0 0 Z " fill="#CEB882" transform="translate(28,18)"/>
<path d="M0 0 C1.35439668 2.70879335 1.06501451 5.00933268 1 8 C0.67 8 0.34 8 0 8 C-0.33 10.97 -0.66 13.94 -1 17 C-1.66 16.67 -2.32 16.34 -3 16 C-2.67 14.02 -2.34 12.04 -2 10 C-3.32 10 -4.64 10 -6 10 C-6 11.65 -6 13.3 -6 15 C-6.33 15 -6.66 15 -7 15 C-6.85892253 13.54119891 -6.71197585 12.08296449 -6.5625 10.625 C-6.48128906 9.81289063 -6.40007813 9.00078125 -6.31640625 8.1640625 C-6 6 -6 6 -5 4 C-4.01 4 -3.02 4 -2 4 C-1.34 2.68 -0.68 1.36 0 0 Z " fill="#75581C" transform="translate(18,12)"/>
<path d="M0 0 C0.33 0 0.66 0 1 0 C1.45761159 3.9354597 1.29742742 5.57244809 -1 8.875 C-4.3664007 11.25953383 -6.04674487 11.67717975 -10.0625 11.44140625 C-13.05407798 10.75985723 -14.86976172 9.13023828 -17 7 C-16.34 5.68 -15.68 4.36 -15 3 C-14.71125 3.61875 -14.4225 4.2375 -14.125 4.875 C-13.06279958 7.13325765 -13.06279958 7.13325765 -11 9 C-8 9.33333333 -8 9.33333333 -5 9 C-2.3534665 6.3534665 -1.40058003 3.43778736 0 0 Z " fill="#0F0B02" transform="translate(38,22)"/>
<path d="M0 0 C0.66 0.66 1.32 1.32 2 2 C1.625 4.125 1.625 4.125 1 6 C-0.32 5.67 -1.64 5.34 -3 5 C-3 4.34 -3 3.68 -3 3 C-3.66 3 -4.32 3 -5 3 C-5.33 3.99 -5.66 4.98 -6 6 C-6.66 5.67 -7.32 5.34 -8 5 C-7.34 3.68 -6.68 2.36 -6 1 C-6.66 0.67 -7.32 0.34 -8 0 C-5.09288879 -1.4535556 -3.10402897 -0.71133997 0 0 Z " fill="#C09D49" transform="translate(34,17)"/>
<path d="M0 0 C2.69982406 0.07825577 4.04439266 0.27219633 6.5 1.5 C8.40831029 3.62849994 9.24769491 5.60747597 10.125 8.3125 C8.805 7.9825 7.485 7.6525 6.125 7.3125 C6.455 6.6525 6.785 5.9925 7.125 5.3125 C3.74481469 4.27244298 0.6469721 4.23245518 -2.875 4.3125 C-2.875 3.9825 -2.875 3.6525 -2.875 3.3125 C-1.225 3.3125 0.425 3.3125 2.125 3.3125 C2.125 2.6525 2.125 1.9925 2.125 1.3125 C-0.515 1.6425 -3.155 1.9725 -5.875 2.3125 C-3.875 0.3125 -3.875 0.3125 0 0 Z " fill="#4F3C14" transform="translate(29.875,2.6875)"/>
<path d="M0 0 C3 1 3 1 5.125 3.375 C8.77147459 6.70438985 12.30263108 7.74122794 17 9 C17 9.33 17 9.66 17 10 C11.26763402 10.45858928 8.44703453 9.65645061 4 6 C0 1.47368421 0 1.47368421 0 0 Z " fill="#EBE3D8" transform="translate(14,41)"/>
<path d="M0 0 C2 1.375 2 1.375 4 3 C4 3.66 4 4.32 4 5 C4.99 5 5.98 5 7 5 C7.33 6.32 7.66 7.64 8 9 C5.69 9 3.38 9 1 9 C0.67 6.03 0.34 3.06 0 0 Z " fill="#805906" transform="translate(40,11)"/>
<path d="M0 0 C4.62 0 9.24 0 14 0 C14 0.66 14 1.32 14 2 C11.51245214 3.24377393 9.77344699 3.13306235 7 3.125 C6.113125 3.12757812 5.22625 3.13015625 4.3125 3.1328125 C2 3 2 3 0 2 C0 1.34 0 0.68 0 0 Z " fill="#F8AB00" transform="translate(23,8)"/>
<path d="M0 0 C0 0.66 0 1.32 0 2 C0.66 2 1.32 2 2 2 C1.67 3.32 1.34 4.64 1 6 C-3 6 -3 6 -5 5 C-5 3 -5 3 -3.625 1.375 C-2 0 -2 0 0 0 Z " fill="#F8D170" transform="translate(31,20)"/>
<path d="M0 0 C1.32 0 2.64 0 4 0 C4 1.98 4 3.96 4 6 C3.01 6.495 3.01 6.495 2 7 C1.34 6.67 0.68 6.34 0 6 C0 4.02 0 2.04 0 0 Z " fill="#C5A24A" transform="translate(12,22)"/>
<path d="M0 0 C-1.15173355 2.46800047 -2.04783565 4.04783565 -4 6 C-4.39764263 7.98821313 -4.73775349 9.98944339 -5 12 C-5.33 12 -5.66 12 -6 12 C-6.48979592 4.65306122 -6.48979592 4.65306122 -4.125 1.5 C-2 0 -2 0 0 0 Z " fill="#010100" transform="translate(27,15)"/>
<path d="M0 0 C0.268125 0.5775 0.53625 1.155 0.8125 1.75 C2.01719859 4.0325868 3.40798115 5.9737942 5 8 C0.32307692 6.52307692 0.32307692 6.52307692 -1.3125 3.875 C-1.539375 3.25625 -1.76625 2.6375 -2 2 C-1.34 1.34 -0.68 0.68 0 0 Z " fill="#1B180F" transform="translate(23,25)"/>
<path d="M0 0 C0.33 0 0.66 0 1 0 C1.125 5.75 1.125 5.75 0 8 C-0.66 8 -1.32 8 -2 8 C-2.33 5.69 -2.66 3.38 -3 1 C-2.67 1.99 -2.34 2.98 -2 4 C-1.34 4 -0.68 4 0 4 C0 2.68 0 1.36 0 0 Z " fill="#624E20" transform="translate(48,21)"/>
<path d="M0 0 C0.66 0 1.32 0 2 0 C1.67 1.65 1.34 3.3 1 5 C-0.32 4.67 -1.64 4.34 -3 4 C-1.625 2 -1.625 2 0 0 Z " fill="#EFC149" transform="translate(34,25)"/>
<path d="M0 0 C1.98 0.99 1.98 0.99 4 2 C4 2.99 4 3.98 4 5 C2.68 4.67 1.36 4.34 0 4 C0 2.68 0 1.36 0 0 Z " fill="#F2D790" transform="translate(24,25)"/>
</svg>
