<?xml version="1.0" encoding="UTF-8"?>
<svg version="1.1" xmlns="http://www.w3.org/2000/svg" width="60" height="60">
<path d="M0 0 C0.80763794 -0.01583633 1.61527588 -0.03167267 2.4473877 -0.04798889 C3.31101929 -0.04302902 4.17465088 -0.03806915 5.06445312 -0.03295898 C6.40679016 -0.04225685 6.40679016 -0.04225685 7.77624512 -0.05174255 C9.66576043 -0.0588374 11.55533829 -0.05567253 13.44482422 -0.04296875 C16.33613003 -0.02909866 19.22420173 -0.06318133 22.11523438 -0.10131836 C23.95247475 -0.10226954 25.78971918 -0.10041079 27.62695312 -0.09545898 C28.49058472 -0.10871719 29.35421631 -0.1219754 30.24401855 -0.13563538 C36.21035909 -0.04304833 36.21035909 -0.04304833 39.39453125 2.84619141 C40.84570312 5.53344727 40.84570312 5.53344727 41.28320312 9.15844727 C41.46882813 10.27219727 41.65445313 11.38594727 41.84570312 12.53344727 C44.23795271 14.26882918 44.23795271 14.26882918 46.84570312 15.53344727 C49.00989374 18.76872883 49.06185733 21.45497047 48.97070312 25.28344727 C48.95265625 26.26829102 48.93460938 27.25313477 48.91601562 28.26782227 C48.8928125 29.01547852 48.86960938 29.76313477 48.84570312 30.53344727 C49.83570313 30.86344727 50.82570312 31.19344727 51.84570312 31.53344727 C51.84570312 35.16344727 51.84570312 38.79344727 51.84570312 42.53344727 C50.85570312 42.86344727 49.86570313 43.19344727 48.84570312 43.53344727 C48.89791016 44.6375293 48.89791016 44.6375293 48.95117188 45.76391602 C49.22498631 55.63427436 49.22498631 55.63427436 45.84570312 59.53344727 C43.45783075 60.72738346 41.94189743 60.67906371 39.27587891 60.71044922 C37.85397751 60.72970207 37.85397751 60.72970207 36.40335083 60.74934387 C35.37628021 60.7567308 34.34920959 60.76411774 33.29101562 60.77172852 C32.23792206 60.77980026 31.18482849 60.78787201 30.099823 60.79618835 C27.86881154 60.81003422 25.63777886 60.82075412 23.40673828 60.82861328 C19.99145534 60.84584258 16.57713611 60.88972692 13.16210938 60.93383789 C10.99675192 60.94396312 8.83138623 60.95247975 6.66601562 60.95922852 C5.64299347 60.9767366 4.61997131 60.99424469 3.56594849 61.01228333 C2.6117099 61.00935776 1.65747131 61.00643219 0.67431641 61.00341797 C-0.16348358 61.00928421 -1.00128357 61.01515045 -1.86447144 61.02119446 C-5.04450204 60.34382798 -6.21294889 59.10616898 -8.15429688 56.53344727 C-8.66223145 54.10522461 -8.66223145 54.10522461 -8.671875 51.36938477 C-8.68448364 50.34151855 -8.69709229 49.31365234 -8.71008301 48.25463867 C-8.70198608 47.15039551 -8.69388916 46.04615234 -8.68554688 44.90844727 C-8.68937378 43.76939941 -8.69320068 42.63035156 -8.69714355 41.45678711 C-8.69986462 39.04938879 -8.69248998 36.64196101 -8.67578125 34.23461914 C-8.65437613 30.54710044 -8.6755782 26.86153027 -8.70117188 23.17407227 C-8.69852864 20.83552629 -8.69340374 18.49698153 -8.68554688 16.15844727 C-8.6936438 15.0542041 -8.70174072 13.94996094 -8.71008301 12.81225586 C-8.69747437 11.78438965 -8.68486572 10.75652344 -8.671875 9.69750977 C-8.66869263 8.79468262 -8.66551025 7.89185547 -8.66223145 6.96166992 C-7.67835929 2.2581888 -4.69437585 0.0411336 0 0 Z " fill="#2C3131" transform="translate(8.154296875,-0.533447265625)"/>
<path d="M0 0 C3.47584611 2.657574 4.80496989 6.2881624 5.875 10.43359375 C5.875 12.99609375 5.875 12.99609375 4.875 15.43359375 C4.6584375 16.07296875 4.441875 16.71234375 4.21875 17.37109375 C2.54099995 21.59653832 0.77029287 23.95663232 -3.3125 26.05859375 C-9.14083142 28.25143131 -13.65829172 26.78317945 -19.2421875 24.609375 C-22.8436331 22.36033947 -23.97086716 18.36931642 -25.125 14.43359375 C-25.0625 10.80859375 -25.0625 10.80859375 -24.125 7.43359375 C-23.815625 6.21671875 -23.50625 4.99984375 -23.1875 3.74609375 C-20.57973424 -0.44213611 -18.19512362 -1.32880585 -13.6953125 -3.03515625 C-8.7746518 -4.0521925 -4.35120599 -2.24977128 0 0 Z " fill="#F3F3F3" transform="translate(32.125,24.56640625)"/>
<path d="M0 0 C6.49664414 0.04157852 12.99242527 0.11381417 19.48852539 0.20751953 C21.69905811 0.23577019 23.90969262 0.25696425 26.12036133 0.27099609 C29.29561634 0.29236869 32.4696422 0.33899031 35.64453125 0.390625 C36.63524124 0.39185364 37.62595123 0.39308228 38.64668274 0.39434814 C40.02777473 0.42392609 40.02777473 0.42392609 41.43676758 0.45410156 C42.65255241 0.46742523 42.65255241 0.46742523 43.89289856 0.48101807 C46 1 46 1 47.76689148 2.88665771 C49.88440493 6.51572251 49.18192303 9.8764114 49 14 C45.37 14.33 41.74 14.66 38 15 C37.67 17.31 37.34 19.62 37 22 C35.31821339 19.47732009 34.09893258 17.18908177 32.875 14.4375 C32.52179687 13.65246094 32.16859375 12.86742187 31.8046875 12.05859375 C31 10 31 10 31 8 C22.80776452 5.2800483 16.35460385 3.81514755 7.98828125 6.75390625 C4.8094176 8.74616068 4.25755163 11.27019233 3.43359375 14.8046875 C3.29050781 15.52914063 3.14742188 16.25359375 3 17 C2.690625 17.825 2.38125 18.65 2.0625 19.5 C1.97170838 23.13166489 3.49567412 25.79635966 5.08984375 29.01171875 C6 31 6 31 6 33 C6.88751953 33.29003906 6.88751953 33.29003906 7.79296875 33.5859375 C11.9146645 34.94414719 15.9950524 36.32050585 20 38 C20 38.33 20 38.66 20 39 C16.85418577 39.02888514 13.70840531 39.04675923 10.5625 39.0625 C9.66466797 39.07087891 8.76683594 39.07925781 7.84179688 39.08789062 C6.56079102 39.09272461 6.56079102 39.09272461 5.25390625 39.09765625 C4.46314697 39.10289307 3.6723877 39.10812988 2.85766602 39.11352539 C1 39 1 39 0 38 C-0.08861992 35.1883662 -0.11522355 32.40141745 -0.09765625 29.58984375 C-0.0962413 28.74780899 -0.09482635 27.90577423 -0.09336853 27.03822327 C-0.08775263 24.33794665 -0.07519748 21.63775172 -0.0625 18.9375 C-0.05748705 17.11132932 -0.05292379 15.28515734 -0.04882812 13.45898438 C-0.03777804 8.97262458 -0.02050279 4.48632616 0 0 Z " fill="#F6A5A5" transform="translate(4,16)"/>
<path d="M0 0 C1.74328939 2.51900287 2.76553928 5.19539933 3.8125 8.0625 C5.71104853 13.44752132 5.71104853 13.44752132 9 18 C11.20250992 18.46006346 11.20250992 18.46006346 13.625 18.625 C14.44226562 18.69976562 15.25953125 18.77453125 16.1015625 18.8515625 C16.72804687 18.90054688 17.35453125 18.94953125 18 19 C18.08167446 20.41569064 18.13949698 21.83276805 18.1875 23.25 C18.23970703 24.43335938 18.23970703 24.43335938 18.29296875 25.640625 C17.89679594 28.83113669 17.42744432 29.83199443 15 32 C11.69819873 32.58232719 8.42523007 32.46351154 5.08203125 32.390625 C4.10965012 32.38496521 3.13726898 32.37930542 2.13542175 32.37347412 C-0.972718 32.35106929 -4.07970824 32.30086481 -7.1875 32.25 C-9.29360315 32.22994033 -11.39972436 32.21168864 -13.50585938 32.1953125 C-18.67101636 32.15119093 -23.83531324 32.0821346 -29 32 C-29 31.67 -29 31.34 -29 31 C-21.08 30.505 -21.08 30.505 -13 30 C-14.876875 29.401875 -16.75375 28.80375 -18.6875 28.1875 C-23.69420127 26.12208778 -25.9867809 24.42387957 -28.3125 19.5 C-29.90258005 15.5275895 -30.17730865 13.11071455 -29 9 C-28.7834375 8.23558594 -28.566875 7.47117187 -28.34375 6.68359375 C-26.66625968 2.21805238 -25.16382115 -0.44554246 -20.8125 -2.625 C-13.51406731 -5.24955954 -6.66011171 -3.73927354 0 0 Z M-24 1 C-26.85164716 5.12218303 -28.03536645 9.19631105 -27.9375 14.1875 C-27.628125 15.115625 -27.31875 16.04375 -27 17 C-26.690625 18.19625 -26.38125 19.3925 -26.0625 20.625 C-23.45460569 24.89246341 -21.13245693 25.84604347 -16.4921875 27.40625 C-11.27187626 28.64996051 -7.15988864 27.18949911 -2.6171875 24.43359375 C0.53386198 21.64027211 1.90450219 17.99280123 3 14 C3.16210219 11.39351495 3.16210219 11.39351495 2 9 C1.7834375 8.360625 1.566875 7.72125 1.34375 7.0625 C-0.42448021 2.60917947 -2.16101421 0.51108538 -6.5625 -1.5 C-12.92260536 -3.98827056 -18.31727422 -2.63991586 -24 1 Z " fill="#AE7878" transform="translate(35,24)"/>
<path d="M0 0 C0.76772232 0.00091141 1.53544464 0.00182281 2.32643127 0.00276184 C3.11554398 -0.00152328 3.90465668 -0.00580841 4.71768188 -0.01022339 C6.38795512 -0.01597053 8.05825338 -0.01646412 9.72853088 -0.01213074 C12.28568724 -0.00897345 14.84168392 -0.03241442 17.3986969 -0.05778503 C19.02044023 -0.06005825 20.64218667 -0.06076142 22.26393127 -0.05973816 C23.02962936 -0.06894791 23.79532745 -0.07815765 24.58422852 -0.08764648 C27.50468345 -0.06217135 29.79812411 -0.01881805 32.36769104 1.45124817 C33.78996719 4.10190137 33.55840878 6.35122428 33.36158752 9.30354309 C27.84402276 9.35289519 22.32658582 9.38923971 16.80885315 9.41340637 C14.9309007 9.42347844 13.05296399 9.43713671 11.17506409 9.454422 C8.47938662 9.47861762 5.78391607 9.49001392 3.08815002 9.49885559 C2.2453952 9.50917816 1.40264038 9.51950073 0.53434753 9.53013611 C-1.52462495 9.53053453 -3.58309182 9.42611897 -5.63841248 9.30354309 C-7.63841248 7.30354309 -7.63841248 7.30354309 -7.88841248 4.80354309 C-7.38128706 -0.2677111 -4.40267275 0.05903161 0 0 Z " fill="#F7A5A5" transform="translate(11.638412475585938,3.6964569091796875)"/>
<path d="M0 0 C3.63 0 7.26 0 11 0 C11 1.65 11 3.3 11 5 C7.37 5 3.74 5 0 5 C0 3.35 0 1.7 0 0 Z " fill="#E69B9B" transform="translate(45,34)"/>
<path d="M0 0 C2.97 0 5.94 0 9 0 C9 0.33 9 0.66 9 1 C7.02 1.33 5.04 1.66 3 2 C3.7734375 2.61875 3.7734375 2.61875 4.5625 3.25 C6 5 6 5 5.8125 7.0625 C5 9 5 9 3 11 C5.97 11.495 5.97 11.495 9 12 C9 12.33 9 12.66 9 13 C6.03 13 3.06 13 0 13 C0.33 12.236875 0.66 11.47375 1 10.6875 C2.58963383 6.41535909 1.74881472 4.04413405 0 0 Z " fill="#1A1A1A" transform="translate(18,30)"/>
<path d="M0 0 C0.33 0 0.66 0 1 0 C1 1.65 1 3.3 1 5 C4.63 5 8.26 5 12 5 C12 5.33 12 5.66 12 6 C11.09507813 6.09087891 11.09507813 6.09087891 10.171875 6.18359375 C8.97304688 6.30927734 8.97304688 6.30927734 7.75 6.4375 C6.96109375 6.51871094 6.1721875 6.59992187 5.359375 6.68359375 C3.17635361 6.97634993 1.1226818 7.42064419 -1 8 C-0.67 5.36 -0.34 2.72 0 0 Z " fill="#142828" transform="translate(44,34)"/>
</svg>
